<svg width="1023" height="825" viewBox="0 0 1023 825" fill="none" xmlns="http://www.w3.org/2000/svg">
<path d="M537.96 549.425C533.595 545.232 529.496 541.26 525.348 537.337C523.609 535.692 522.678 534.278 524.92 532.168C535.97 521.771 546.91 511.265 557.91 500.818C558.342 500.409 558.987 500.207 560.179 499.555C560.161 504.459 558.733 508.661 558.629 512.999C558.413 522.028 561.578 529.423 568.242 535.757C584.442 551.154 600.492 566.695 616.592 582.188C617.737 583.29 619.173 584.201 619.899 586.589C548.22 586.589 476.921 586.589 405.582 586.589C405.435 584.074 407.324 583.252 408.539 582.083C434.162 557.438 459.818 532.825 485.464 508.202C490.21 503.645 490.221 503.621 485.674 499.248C474.742 488.734 463.795 478.234 452.841 467.74C451.678 466.625 450.432 465.59 448.509 463.883C420.196 491 392.025 517.982 363.659 545.15C361.676 542.863 362.374 540.542 362.373 538.444C362.346 487.833 362.333 437.222 362.48 386.611C362.492 382.606 361.293 379.758 358.313 376.96C345.348 364.785 332.612 352.386 319.756 340.104C318.62 339.019 317.729 337.53 315.8 337.252C314.352 338.916 315.009 340.91 315.007 342.724C314.961 392.377 314.913 442.03 314.995 491.683C315.021 507.337 309.749 520.714 297.762 531.547C293.359 535.526 289.172 539.723 283.829 544.832C283.829 450.287 283.829 357.405 283.829 264.083C309.654 288.899 335.078 313.33 360.502 337.761C361.075 337.463 361.648 337.165 362.221 336.867C362.221 297.331 362.221 257.794 362.221 218.429C363.314 218.187 363.778 217.953 363.922 218.072C376.958 228.883 389.968 239.876 392.799 257.4C395.18 272.134 393.968 287.012 393.253 301.826C392.961 307.874 392.168 313.9 391.622 319.937C391.053 326.225 387.861 328.156 381.936 325.773C374.608 322.826 374.155 323.129 373.58 330.985C373.452 332.729 373.006 334.449 372.79 336.19C372.183 341.065 375.035 344.762 379.995 346.114C382.887 346.903 383.627 344.977 385.075 343.424C386.967 341.394 387.881 337.135 391.205 337.978C394.958 338.929 393.657 343.086 393.788 345.951C394.02 351.051 394.208 356.189 393.815 361.268C393.426 366.289 395.061 369.893 398.883 373.452C414.17 387.687 429.232 402.151 444.117 416.773C447.63 420.224 449.612 420.265 453.214 416.797C510.539 361.593 568.037 306.554 625.427 251.413C636.624 240.654 650.076 235.495 665.791 235.42C672.015 235.391 678.24 235.415 684.144 235.415C684.905 237.728 683.762 238.347 682.974 239.105C635.243 284.992 587.505 330.873 539.771 376.757C535.179 381.171 535.131 381.233 539.69 385.659C550.569 396.221 561.612 406.63 572.357 417.316C575.428 420.369 577.251 420.236 580.338 417.265C631.922 367.614 683.619 318.07 735.309 268.52C736.813 267.078 738.074 265.288 740.516 264.633C742.31 266.284 741.55 268.465 741.553 270.385C741.6 302.475 741.362 334.568 741.689 366.656C741.823 379.883 740.896 393.137 741.765 406.309C742.753 421.28 742.055 436.26 741.93 451.163C741.68 480.998 741.984 510.837 741.57 540.67C741.557 541.571 741.814 542.619 740.17 543.592C727.474 532.162 713.916 521.289 710.983 503.148C710.164 498.084 710.039 492.998 710.042 487.884C710.078 439.029 710.061 390.174 710.059 341.319C710.059 339.894 710.059 338.469 710.059 338.004C673.715 372.846 637.008 408.035 599.953 443.559C603.287 447.753 608.658 452.045 613.538 456.763C631.591 474.213 649.612 491.696 667.927 508.891C680.096 520.315 685.796 533.992 685.351 550.164C685.204 555.493 685.854 560.875 684.584 567.769C647.929 532.654 612.246 498.471 577.044 464.748C544.968 495.354 513.179 525.687 481.162 556.237C501.843 556.237 522.47 556.237 543.567 556.237C542.598 552.981 539.922 551.671 537.96 549.425ZM496.063 466.504C500.543 470.775 505.115 474.963 509.468 479.351C511.704 481.606 513.264 481.565 515.566 479.321C527.226 467.957 539.001 456.701 550.827 445.496C553.06 443.381 553.335 441.868 550.943 439.611C539.211 428.541 527.551 417.4 516.024 406.134C513.184 403.357 511.375 403.82 508.744 406.39C497.449 417.425 486.056 428.372 474.484 439.14C471.474 441.942 472.104 443.661 474.727 446.099C481.769 452.645 488.626 459.374 496.063 466.504ZM411.374 427.965C405.957 422.789 400.539 417.613 394.448 411.793C394.448 432.811 394.448 452.379 394.448 471.461C404.853 461.658 415.221 451.891 426.183 441.564C421.472 437.244 416.673 432.844 411.374 427.965Z" fill="white"/>
</svg>
